# xmcd
#
# Track frame offsets:
#	150
#	14117
#	33252
#	47166
#	61599
#	74500
#	87605
#	101148
#	113375
#	123149
#	136346
#	151163
#
# Disc length: 2182 seconds
#
# Revision: 0
# Processed by: cddbd v1.5PL3 Copyright (c) Steve Scherf et al.
# Submitted via: dBpowerAMP V4.0
#
DISCID=9b08840c
DTITLE=B.J.Thomas - The Very Best Of B.J. Thomas
DYEAR=1974
DGENRE=
TTITLE0=Raindrops Keep Fallin' On My Head
TTITLE1=I Believe In Music
TTITLE2=Eyes Of A New York Woman
TTITLE3=I'm So Lonesome I Could Cry
TTITLE4=I Can't Help It
TTITLE5=No Love At All
TTITLE6=I Just Can't Help Believing
TTITLE7=Since I Don't Have You
TTITLE8=Crying In The Chapel
TTITLE9=Mama
TTITLE10=Mighty Clouds Of Joy
TTITLE11=Hooked On A Feeling
EXTD=
EXTT0=
EXTT1=
EXTT2=
EXTT3=
EXTT4=
EXTT5=
EXTT6=
EXTT7=
EXTT8=
EXTT9=
EXTT10=
EXTT11=
PLAYORDER=
